<?xml version="1.0" encoding="UTF-8" standalone="no"?>
<!-- Created with Inkscape (http://www.inkscape.org/) -->

<svg
   width="200"
   height="500"
   viewBox="0 0 200 500"
   version="1.1"
   id="svg5"
   inkscape:version="1.2.2 (732a01da63, 2022-12-09, custom)"
   sodipodi:docname="ghost_sprite.svg"
   inkscape:export-filename="../858743a/ghosts.png"
   inkscape:export-xdpi="96"
   inkscape:export-ydpi="96"
   xmlns:inkscape="http://www.inkscape.org/namespaces/inkscape"
   xmlns:sodipodi="http://sodipodi.sourceforge.net/DTD/sodipodi-0.dtd"
   xmlns="http://www.w3.org/2000/svg"
   xmlns:svg="http://www.w3.org/2000/svg">
  <sodipodi:namedview
     id="namedview7"
     pagecolor="#505050"
     bordercolor="#ffffff"
     borderopacity="1"
     inkscape:showpageshadow="0"
     inkscape:pageopacity="0"
     inkscape:pagecheckerboard="1"
     inkscape:deskcolor="#505050"
     inkscape:document-units="px"
     showgrid="false"
     inkscape:zoom="1.5492787"
     inkscape:cx="-61.318857"
     inkscape:cy="245.59816"
     inkscape:window-width="1850"
     inkscape:window-height="1016"
     inkscape:window-x="0"
     inkscape:window-y="0"
     inkscape:window-maximized="1"
     inkscape:current-layer="g1618" />
  <defs
     id="defs2">
    <inkscape:path-effect
       effect="fillet_chamfer"
       id="path-effect176"
       is_visible="true"
       lpeversion="1"
       nodesatellites_param="F,0,0,1,0,0,0,1 @ F,0,0,1,0,0,0,1 @ F,0,0,1,0,5,0,1 @ F,0,0,1,0,0,0,1 @ F,0,0,1,0,0,0,1 @ F,0,0,1,0,2,0,1 @ F,0,0,1,0,0,0,1 @ F,0,0,1,0,2,0,1 @ F,0,0,1,0,0,0,1 @ F,0,0,1,0,0,0,1 @ F,0,0,1,0,5,0,1 @ F,0,0,1,0,0,0,1 @ F,0,0,1,0,0,0,1 @ F,0,0,1,0,0,0,1"
       unit="px"
       method="auto"
       mode="F"
       radius="0"
       chamfer_steps="1"
       flexible="false"
       use_knot_distance="true"
       apply_no_radius="true"
       apply_with_radius="true"
       only_selected="false"
       hide_knots="false" />
    <inkscape:path-effect
       effect="fillet_chamfer"
       id="path-effect172"
       is_visible="true"
       lpeversion="1"
       nodesatellites_param="F,0,0,1,0,0,0,1 @ F,0,0,1,0,0,0,1 @ F,0,0,1,0,5,0,1 @ F,0,0,1,0,0,0,1 @ F,0,0,1,0,7.1931746,0,1 @ F,0,0,1,0,2,0,1 @ F,0,0,1,0,0,0,1 @ F,0,0,1,0,2,0,1 @ F,0,0,1,0,6.2817492,0,1 @ F,0,0,1,0,0,0,1 @ F,0,0,1,0,5,0,1 @ F,0,0,1,0,0,0,1 @ F,0,0,1,0,0,0,1 @ F,0,0,1,0,0,0,1"
       unit="px"
       method="auto"
       mode="F"
       radius="0"
       chamfer_steps="1"
       flexible="false"
       use_knot_distance="true"
       apply_no_radius="true"
       apply_with_radius="true"
       only_selected="false"
       hide_knots="false" />
    <inkscape:path-effect
       effect="fillet_chamfer"
       id="path-effect1056"
       is_visible="true"
       lpeversion="1"
       nodesatellites_param="F,0,0,1,0,0,0,1 @ F,0,0,1,0,0,0,1 @ F,0,0,1,0,5,0,1 @ F,0,0,1,0,0,0,1 @ F,0,0,1,0,0,0,1 @ F,0,0,1,0,2,0,1 @ F,0,0,1,0,0,0,1 @ F,0,0,1,0,2,0,1 @ F,0,0,1,0,0,0,1 @ F,0,0,1,0,0,0,1 @ F,0,0,1,0,5,0,1 @ F,0,0,1,0,0,0,1 @ F,0,0,1,0,0,0,1 @ F,0,0,1,0,0,0,1"
       unit="px"
       method="auto"
       mode="F"
       radius="0"
       chamfer_steps="1"
       flexible="false"
       use_knot_distance="true"
       apply_no_radius="true"
       apply_with_radius="true"
       only_selected="false"
       hide_knots="false" />
    <inkscape:path-effect
       effect="fillet_chamfer"
       id="path-effect1052"
       is_visible="true"
       lpeversion="1"
       nodesatellites_param="F,0,0,1,0,0,0,1 @ F,0,0,1,0,0,0,1 @ F,0,0,1,0,5,0,1 @ F,0,0,1,0,0,0,1 @ F,0,0,1,0,7.1931746,0,1 @ F,0,0,1,0,2,0,1 @ F,0,0,1,0,0,0,1 @ F,0,0,1,0,2,0,1 @ F,0,0,1,0,6.2817492,0,1 @ F,0,0,1,0,0,0,1 @ F,0,0,1,0,5,0,1 @ F,0,0,1,0,0,0,1 @ F,0,0,1,0,0,0,1 @ F,0,0,1,0,0,0,1"
       unit="px"
       method="auto"
       mode="F"
       radius="0"
       chamfer_steps="1"
       flexible="false"
       use_knot_distance="true"
       apply_no_radius="true"
       apply_with_radius="true"
       only_selected="false"
       hide_knots="false" />
    <inkscape:path-effect
       effect="fillet_chamfer"
       id="path-effect1042"
       is_visible="true"
       lpeversion="1"
       nodesatellites_param="F,0,0,1,0,0,0,1 @ F,0,0,1,0,0,0,1 @ F,0,0,1,0,5,0,1 @ F,0,0,1,0,0,0,1 @ F,0,0,1,0,0,0,1 @ F,0,0,1,0,2,0,1 @ F,0,0,1,0,0,0,1 @ F,0,0,1,0,2,0,1 @ F,0,0,1,0,0,0,1 @ F,0,0,1,0,0,0,1 @ F,0,0,1,0,5,0,1 @ F,0,0,1,0,0,0,1 @ F,0,0,1,0,0,0,1 @ F,0,0,1,0,0,0,1"
       unit="px"
       method="auto"
       mode="F"
       radius="0"
       chamfer_steps="1"
       flexible="false"
       use_knot_distance="true"
       apply_no_radius="true"
       apply_with_radius="true"
       only_selected="false"
       hide_knots="false" />
    <inkscape:path-effect
       effect="fillet_chamfer"
       id="path-effect1038"
       is_visible="true"
       lpeversion="1"
       nodesatellites_param="F,0,0,1,0,0,0,1 @ F,0,0,1,0,0,0,1 @ F,0,0,1,0,5,0,1 @ F,0,0,1,0,0,0,1 @ F,0,0,1,0,7.1931746,0,1 @ F,0,0,1,0,2,0,1 @ F,0,0,1,0,0,0,1 @ F,0,0,1,0,2,0,1 @ F,0,0,1,0,6.2817492,0,1 @ F,0,0,1,0,0,0,1 @ F,0,0,1,0,5,0,1 @ F,0,0,1,0,0,0,1 @ F,0,0,1,0,0,0,1 @ F,0,0,1,0,0,0,1"
       unit="px"
       method="auto"
       mode="F"
       radius="0"
       chamfer_steps="1"
       flexible="false"
       use_knot_distance="true"
       apply_no_radius="true"
       apply_with_radius="true"
       only_selected="false"
       hide_knots="false" />
    <inkscape:path-effect
       effect="fillet_chamfer"
       id="path-effect1028"
       is_visible="true"
       lpeversion="1"
       nodesatellites_param="F,0,0,1,0,0,0,1 @ F,0,0,1,0,0,0,1 @ F,0,0,1,0,5,0,1 @ F,0,0,1,0,0,0,1 @ F,0,0,1,0,7.1931746,0,1 @ F,0,0,1,0,2,0,1 @ F,0,0,1,0,0,0,1 @ F,0,0,1,0,2,0,1 @ F,0,0,1,0,6.2817492,0,1 @ F,0,0,1,0,0,0,1 @ F,0,0,1,0,5,0,1 @ F,0,0,1,0,0,0,1 @ F,0,0,1,0,0,0,1 @ F,0,0,1,0,0,0,1"
       unit="px"
       method="auto"
       mode="F"
       radius="0"
       chamfer_steps="1"
       flexible="false"
       use_knot_distance="true"
       apply_no_radius="true"
       apply_with_radius="true"
       only_selected="false"
       hide_knots="false" />
    <inkscape:path-effect
       effect="fillet_chamfer"
       id="path-effect1024"
       is_visible="true"
       lpeversion="1"
       nodesatellites_param="F,0,0,1,0,0,0,1 @ F,0,0,1,0,0,0,1 @ F,0,0,1,0,5,0,1 @ F,0,0,1,0,0,0,1 @ F,0,0,1,0,0,0,1 @ F,0,0,1,0,2,0,1 @ F,0,0,1,0,0,0,1 @ F,0,0,1,0,2,0,1 @ F,0,0,1,0,0,0,1 @ F,0,0,1,0,0,0,1 @ F,0,0,1,0,5,0,1 @ F,0,0,1,0,0,0,1 @ F,0,0,1,0,0,0,1 @ F,0,0,1,0,0,0,1"
       unit="px"
       method="auto"
       mode="F"
       radius="0"
       chamfer_steps="1"
       flexible="false"
       use_knot_distance="true"
       apply_no_radius="true"
       apply_with_radius="true"
       only_selected="false"
       hide_knots="false" />
    <inkscape:path-effect
       effect="fillet_chamfer"
       id="path-effect1020"
       is_visible="true"
       lpeversion="1"
       nodesatellites_param="F,0,0,1,0,0,0,1 @ F,0,0,1,0,0,0,1 @ F,0,0,1,0,5,0,1 @ F,0,0,1,0,0,0,1 @ F,0,0,1,0,7.1931746,0,1 @ F,0,0,1,0,2,0,1 @ F,0,0,1,0,0,0,1 @ F,0,0,1,0,2,0,1 @ F,0,0,1,0,6.2817492,0,1 @ F,0,0,1,0,0,0,1 @ F,0,0,1,0,5,0,1 @ F,0,0,1,0,0,0,1 @ F,0,0,1,0,0,0,1 @ F,0,0,1,0,0,0,1"
       unit="px"
       method="auto"
       mode="F"
       radius="0"
       chamfer_steps="1"
       flexible="false"
       use_knot_distance="true"
       apply_no_radius="true"
       apply_with_radius="true"
       only_selected="false"
       hide_knots="false" />
    <inkscape:path-effect
       effect="fillet_chamfer"
       id="path-effect997"
       is_visible="true"
       lpeversion="1"
       nodesatellites_param="F,0,0,1,0,0,0,1 @ F,0,0,1,0,0,0,1 @ F,0,0,1,0,5,0,1 @ F,0,0,1,0,0,0,1 @ F,0,0,1,0,0,0,1 @ F,0,0,1,0,2,0,1 @ F,0,0,1,0,0,0,1 @ F,0,0,1,0,2,0,1 @ F,0,0,1,0,0,0,1 @ F,0,0,1,0,0,0,1 @ F,0,0,1,0,5,0,1 @ F,0,0,1,0,0,0,1 @ F,0,0,1,0,0,0,1 @ F,0,0,1,0,0,0,1"
       unit="px"
       method="auto"
       mode="F"
       radius="0"
       chamfer_steps="1"
       flexible="false"
       use_knot_distance="true"
       apply_no_radius="true"
       apply_with_radius="true"
       only_selected="false"
       hide_knots="false" />
    <inkscape:path-effect
       effect="fillet_chamfer"
       id="path-effect993"
       is_visible="true"
       lpeversion="1"
       nodesatellites_param="F,0,0,1,0,0,0,1 @ F,0,0,1,0,0,0,1 @ F,0,0,1,0,5,0,1 @ F,0,0,1,0,0,0,1 @ F,0,0,1,0,7.1931746,0,1 @ F,0,0,1,0,2,0,1 @ F,0,0,1,0,0,0,1 @ F,0,0,1,0,2,0,1 @ F,0,0,1,0,6.2817492,0,1 @ F,0,0,1,0,0,0,1 @ F,0,0,1,0,5,0,1 @ F,0,0,1,0,0,0,1 @ F,0,0,1,0,0,0,1 @ F,0,0,1,0,0,0,1"
       unit="px"
       method="auto"
       mode="F"
       radius="0"
       chamfer_steps="1"
       flexible="false"
       use_knot_distance="true"
       apply_no_radius="true"
       apply_with_radius="true"
       only_selected="false"
       hide_knots="false" />
    <inkscape:path-effect
       effect="fillet_chamfer"
       id="path-effect863"
       is_visible="true"
       lpeversion="1"
       nodesatellites_param="F,0,0,1,0,0,0,1 @ F,0,0,1,0,0,0,1 @ F,0,0,1,0,5,0,1 @ F,0,0,1,0,0,0,1 @ F,0,0,1,0,0,0,1 @ F,0,0,1,0,2,0,1 @ F,0,0,1,0,0,0,1 @ F,0,0,1,0,2,0,1 @ F,0,0,1,0,0,0,1 @ F,0,0,1,0,0,0,1 @ F,0,0,1,0,5,0,1 @ F,0,0,1,0,0,0,1 @ F,0,0,1,0,0,0,1 @ F,0,0,1,0,0,0,1"
       unit="px"
       method="auto"
       mode="F"
       radius="0"
       chamfer_steps="1"
       flexible="false"
       use_knot_distance="true"
       apply_no_radius="true"
       apply_with_radius="true"
       only_selected="false"
       hide_knots="false" />
    <inkscape:path-effect
       effect="fillet_chamfer"
       id="path-effect1252"
       is_visible="true"
       lpeversion="1"
       nodesatellites_param="F,0,0,1,0,0,0,1 @ F,0,0,1,0,0,0,1 @ F,0,0,1,0,5,0,1 @ F,0,0,1,0,0,0,1 @ F,0,0,1,0,7.1931746,0,1 @ F,0,0,1,0,2,0,1 @ F,0,0,1,0,0,0,1 @ F,0,0,1,0,2,0,1 @ F,0,0,1,0,6.2817492,0,1 @ F,0,0,1,0,0,0,1 @ F,0,0,1,0,5,0,1 @ F,0,0,1,0,0,0,1 @ F,0,0,1,0,0,0,1 @ F,0,0,1,0,0,0,1"
       unit="px"
       method="auto"
       mode="F"
       radius="0"
       chamfer_steps="1"
       flexible="false"
       use_knot_distance="true"
       apply_no_radius="true"
       apply_with_radius="true"
       only_selected="false"
       hide_knots="false" />
    <inkscape:path-effect
       effect="fillet_chamfer"
       id="path-effect1250"
       is_visible="true"
       lpeversion="1"
       nodesatellites_param="F,0,0,1,0,0,0,1 @ F,0,0,1,0,20,0,1 @ F,0,0,1,0,0,0,1 @ F,0,0,1,0,0,0,1 @ F,0,0,1,0,5,0,1 @ F,0,0,1,0,2,0,1 @ F,0,0,1,0,0,0,1 @ F,0,0,1,0,0,0,1 @ F,0,0,1,0,5,0,1 @ F,0,0,1,0,0,0,1 @ F,0,0,1,0,0,0,1 @ F,0,0,1,0,20,0,1 @ F,0,0,1,0,0,0,1 @ F,0,0,1,0,0,0,1"
       unit="px"
       method="auto"
       mode="F"
       radius="0"
       chamfer_steps="1"
       flexible="false"
       use_knot_distance="true"
       apply_no_radius="true"
       apply_with_radius="true"
       only_selected="false"
       hide_knots="false" />
    <inkscape:path-effect
       effect="fillet_chamfer"
       id="path-effect1248"
       is_visible="true"
       lpeversion="1"
       nodesatellites_param="F,1,0,1,0,0.5,0,1 @ F,1,0,1,0,0,0,1 @ F,1,0,1,0,0,0,1 @ F,1,0,1,0,0,0,1 @ F,1,0,1,0,0,0,1 @ F,1,0,1,0,0,0,1 @ F,1,0,1,0,0,0,1 @ F,1,0,1,0,0,0,1 @ F,1,0,1,0,0,0,1 @ F,1,0,1,0,0,0,1 @ F,1,0,1,0,0,0,1 @ F,1,0,1,0,0,0,1 @ F,1,0,1,0,0.5,0,1"
       unit="px"
       method="auto"
       mode="F"
       radius="0"
       chamfer_steps="1"
       flexible="true"
       use_knot_distance="true"
       apply_no_radius="true"
       apply_with_radius="true"
       only_selected="false"
       hide_knots="false" />
    <inkscape:path-effect
       effect="fillet_chamfer"
       id="path-effect1112"
       is_visible="true"
       lpeversion="1"
       nodesatellites_param="F,1,0,1,0,0,0,1 @ F,1,0,1,0,0,0,1 @ F,1,0,1,0,0,0,1 @ F,1,0,1,0,0.2,0,1 @ F,1,0,1,0,0,0,1 @ F,1,0,1,0,0.2,0,1 @ F,1,0,1,0,0,0,1 @ F,1,0,1,0,0.2,0,1 @ F,1,0,1,0,0,0,1 @ F,1,0,1,0,0.2,0,1 @ F,1,0,1,0,0,0,1 @ F,1,0,1,0,0,0,1"
       unit="px"
       method="auto"
       mode="F"
       radius="0"
       chamfer_steps="1"
       flexible="true"
       use_knot_distance="true"
       apply_no_radius="true"
       apply_with_radius="true"
       only_selected="false"
       hide_knots="false" />
    <inkscape:path-effect
       effect="fillet_chamfer"
       id="path-effect790"
       is_visible="true"
       lpeversion="1"
       nodesatellites_param="F,1,0,1,0,0.5,0,1 @ F,1,0,1,0,0.5,0,1 @ F,1,0,1,0,0.2,0,1 @ F,1,0,1,0,0.2,0,1"
       unit="px"
       method="auto"
       mode="F"
       radius="0"
       chamfer_steps="1"
       flexible="true"
       use_knot_distance="true"
       apply_no_radius="true"
       apply_with_radius="true"
       only_selected="false"
       hide_knots="false" />
  </defs>
  <g
     inkscape:label="Enemy Light Blue"
     inkscape:groupmode="layer"
     id="g989"
     inkscape:highlight-color="#2ffbfd">
    <path
       id="path985"
       style="display:inline;fill:#2ffbfd;fill-opacity:1;stroke:none;stroke-width:1.09902;stroke-dasharray:none"
       d="m 100.17928,250.10523 v 30.06314 c -1.133671,7.981 3.21065,15.47843 10.16323,18.64411 2.50467,1.14044 4.69232,-0.9977 5.99674,-3.39921 1.69064,-3.11255 4.97535,-5.22386 8.75039,-5.22386 1.20358,0 2.35732,0.21461 3.42544,0.60787 3.64835,1.34322 7.68147,6.99209 11.37221,8.27957 1.10199,0.38442 2.20341,0.69126 3.16696,0.88825 1.08049,0.22091 2.13333,-0.63753 2.27444,-1.73297 0.68067,-5.28386 0.35601,-8.04272 4.67131,-8.04272 4.82218,0 5.0049,3.44505 4.97629,8.02142 -0.007,1.10436 0.88898,1.97517 1.96949,1.75427 1.21354,-0.24811 2.64577,-0.67046 4.02242,-1.20258 3.18645,-1.23168 6.59683,-6.14192 9.67717,-7.61131 1.29292,-0.61676 2.73889,-0.9618 4.26499,-0.9618 3.77504,0 7.05976,2.11131 8.7504,5.22386 1.30441,2.40151 3.49206,4.53965 5.99674,3.3992 6.95258,-3.16568 11.29689,-10.6631 10.16322,-18.6441 V 250.10523 C 199.82072,222.43287 177.51523,200 150,200 c -27.51523,0 -49.82072,22.43287 -49.82072,50.10523 z"
       inkscape:path-effect="#path-effect993"
       inkscape:original-d="m 100.17928,250.10523 v 30.06314 c -1.375762,9.68532 5.31588,18.65847 14.94621,20.04209 0,-5.53447 4.4611,-10.02105 9.96415,-10.02105 3.77209,0 7.05463,2.10802 8.74643,5.21659 1.30727,2.40201 8.44839,4.80446 11.19993,4.80446 1.11486,-6.57172 0.13882,-10.02105 4.964,-10.02105 5.50305,0 4.964,4.48658 4.964,10.02105 2.75155,0 9.89266,-2.40246 11.19992,-4.80446 1.69181,-3.10857 4.97434,-5.21659 8.74644,-5.21659 5.50305,0 9.96415,4.48658 9.96415,10.02105 9.63033,-1.38362 16.32197,-10.35677 14.94621,-20.04209 V 250.10523 C 199.82072,222.43287 177.51523,200 150,200 c -27.51523,0 -49.82072,22.43287 -49.82072,50.10523 z"
       inkscape:label="Body 2"
       sodipodi:nodetypes="sccsscscssccsss" />
    <path
       id="path987"
       style="display:inline;fill:#2ffbfd;fill-opacity:1;stroke:none;stroke-width:1.09952;stroke-dasharray:none"
       d="m 0.17927582,250.15063 v 30.09038 c -1.13369211,7.98838 3.21079348,15.49271 10.16358418,18.66117 2.504297,1.14124 4.691846,-0.99615 5.994399,-3.39878 1.690048,-3.11738 4.975859,-5.23226 8.752379,-5.23226 3.772097,0 7.054635,2.10993 8.746437,5.22132 0.980978,1.80411 2.431418,3.60847 4.257041,4.3968 1.006941,0.43481 2.078452,-0.47668 2.382474,-1.538 1.520593,-5.30828 5.200929,-8.08012 9.524411,-8.08012 4.827192,0 8.852652,3.45534 9.768612,8.04297 0.215918,1.08144 1.13136,2.00996 2.138324,1.57512 1.825598,-0.78834 3.27602,-2.59268 4.256989,-4.39678 1.691802,-3.11138 4.974341,-5.22131 8.746437,-5.22131 3.776523,0 7.062336,2.11488 8.752383,5.23227 1.302549,2.40262 3.490105,4.54001 5.994408,3.39877 6.952783,-3.16847 11.297266,-10.6728 10.16357,-18.66117 V 250.15063 C 99.820724,222.4532 77.51523,200 50.000001,200 22.484772,200 0.17927582,222.4532 0.17927582,250.15063 Z"
       inkscape:path-effect="#path-effect997"
       inkscape:original-d="m 0.17927582,250.15063 v 30.09038 A 17.614287,17.730927 0 0 0 15.125493,300.30127 c 0,-5.53949 4.461097,-10.03013 9.964145,-10.03013 3.772097,0 7.054635,2.10993 8.746437,5.22132 1.307266,2.40418 3.448232,4.80881 6.199781,4.80881 1.114858,-6.57768 5.138968,-10.03013 9.964145,-10.03013 5.503047,0 9.964145,4.49064 9.964145,10.03013 2.751548,0 4.892514,-2.40463 6.19978,-4.80882 1.691802,-3.11138 4.974341,-5.22131 8.746437,-5.22131 5.503048,0 9.964145,4.49064 9.964145,10.03013 A 17.614287,17.730927 0 0 0 99.820724,280.24101 V 250.15063 C 99.820724,222.4532 77.51523,200 50.000001,200 22.484772,200 0.17927582,222.4532 0.17927582,250.15063 Z"
       inkscape:label="Body 1" />
    <g
       inkscape:groupmode="layer"
       id="g1603"
       inkscape:label="Eyes"
       style="display:inline">
      <ellipse
         style="fill:#ffffff;fill-opacity:1;stroke:none;stroke-width:1.09002;stroke-dasharray:none"
         id="ellipse1595"
         cx="67.5"
         cy="230"
         rx="7.5"
         ry="10" />
      <ellipse
         style="fill:#000000;fill-opacity:1;stroke:none;stroke-width:0.444999;stroke-dasharray:none"
         id="ellipse1597"
         cx="67.5"
         cy="230"
         rx="2.5"
         ry="5" />
      <ellipse
         style="fill:#ffffff;fill-opacity:1;stroke:none;stroke-width:1.09002;stroke-dasharray:none"
         id="ellipse1599"
         cx="37.5"
         cy="230"
         rx="7.5"
         ry="10" />
      <ellipse
         style="fill:#000000;fill-opacity:1;stroke:none;stroke-width:0.444999;stroke-dasharray:none"
         id="ellipse1601"
         cx="37.5"
         cy="230"
         rx="2.5"
         ry="5" />
    </g>
    <g
       inkscape:groupmode="layer"
       id="g1618"
       inkscape:label="Eyes 2"
       style="display:inline">
      <ellipse
         style="fill:#ffffff;fill-opacity:1;stroke:none;stroke-width:1.09002;stroke-dasharray:none"
         id="ellipse1610"
         cx="167.5"
         cy="230"
         rx="7.5"
         ry="10" />
      <ellipse
         style="fill:#000000;fill-opacity:1;stroke:none;stroke-width:0.444999;stroke-dasharray:none"
         id="ellipse1612"
         cx="167.5"
         cy="230"
         rx="2.5"
         ry="5" />
      <ellipse
         style="fill:#ffffff;fill-opacity:1;stroke:none;stroke-width:1.09002;stroke-dasharray:none"
         id="ellipse1614"
         cx="137.5"
         cy="230"
         rx="7.5"
         ry="10" />
      <ellipse
         style="fill:#000000;fill-opacity:1;stroke:none;stroke-width:0.444999;stroke-dasharray:none"
         id="ellipse1616"
         cx="137.5"
         cy="230"
         rx="2.5"
         ry="5" />
    </g>
  </g>
  <g
     inkscape:groupmode="layer"
     id="layer3"
     inkscape:label="First"
     style="display:none">
    <path
       id="rect234"
       style="fill:#2ffbfd;fill-opacity:1;stroke:none;stroke-width:1.11207;stroke-dasharray:none"
       d="M 50,0 C 22.385763,0 0,22.385763 0,50 v 30 c 0,9.955831 7.2744614,18.212621 16.798083,19.745068 1.751437,0.281822 3.153226,-1.228153 3.711724,-2.905841 C 21.832689,92.865378 25.581722,90 30,90 c 4.41828,0 8.167315,2.865381 9.490195,6.839233 0.558496,1.677685 0.461114,1.677682 1.019612,-6e-6 C 41.832689,92.865378 45.581722,90 50,90 c 4.41828,0 8.167315,2.865381 9.490195,6.839233 0.558496,1.677685 0.461114,1.677682 1.019612,-6e-6 C 61.832689,92.865378 65.581722,90 70,90 c 3.273321,0 6.179313,1.572726 8.003552,4.003755 2.094931,2.791762 4.962618,6.093625 8.317995,4.976632 C 94.269245,96.334622 100,88.836556 100,80 V 50 C 100,22.385763 77.614237,0 50,0 Z"
       inkscape:path-effect="#path-effect1112"
       inkscape:original-d="M 50,0 A 50,50 0 0 0 0,50 v 30 a 20,20 0 0 0 20,20 10,10 0 0 1 10,-10 10,10 0 0 1 10,10 10,10 0 0 1 10,-10 10,10 0 0 1 10,10 10,10 0 0 1 10,-10 10,10 0 0 1 10,10 20,20 0 0 0 20,-20 V 50 A 50,50 0 0 0 50,0 Z"
       inkscape:label="Body" />
  </g>
  <g
     inkscape:groupmode="layer"
     id="layer2"
     inkscape:label="Eyes"
     style="display:none">
    <ellipse
       style="fill:#ffffff;fill-opacity:1;stroke:none;stroke-width:1.09002;stroke-dasharray:none"
       id="ellipse1116"
       cx="67.5"
       cy="30"
       rx="7.5"
       ry="10" />
    <ellipse
       style="fill:#000000;fill-opacity:1;stroke:none;stroke-width:0.444999;stroke-dasharray:none"
       id="ellipse1120"
       cx="70.5"
       cy="30"
       rx="2.5"
       ry="5" />
    <ellipse
       style="fill:#ffffff;fill-opacity:1;stroke:none;stroke-width:1.09002;stroke-dasharray:none"
       id="path1114"
       cx="37.5"
       cy="30"
       rx="7.5"
       ry="10" />
    <ellipse
       style="fill:#000000;fill-opacity:1;stroke:none;stroke-width:0.444999;stroke-dasharray:none"
       id="ellipse1118"
       cx="40.5"
       cy="30"
       rx="2.5"
       ry="5" />
  </g>
  <g
     inkscape:groupmode="layer"
     id="g1262"
     inkscape:label="Eyes 2"
     style="display:none">
    <ellipse
       style="fill:#ffffff;fill-opacity:1;stroke:none;stroke-width:1.09002;stroke-dasharray:none"
       id="ellipse1254"
       cx="167.5"
       cy="30"
       rx="7.5"
       ry="10" />
    <ellipse
       style="fill:#000000;fill-opacity:1;stroke:none;stroke-width:0.444999;stroke-dasharray:none"
       id="ellipse1256"
       cx="164.5"
       cy="30"
       rx="2.5"
       ry="5" />
    <ellipse
       style="fill:#ffffff;fill-opacity:1;stroke:none;stroke-width:1.09002;stroke-dasharray:none"
       id="ellipse1258"
       cx="137.5"
       cy="30"
       rx="7.5"
       ry="10" />
    <ellipse
       style="fill:#000000;fill-opacity:1;stroke:none;stroke-width:0.444999;stroke-dasharray:none"
       id="ellipse1260"
       cx="134.5"
       cy="30"
       rx="2.5"
       ry="5" />
  </g>
  <g
     inkscape:label="Enemy Pink"
     inkscape:groupmode="layer"
     id="g1016"
     style="display:inline"
     inkscape:highlight-color="#ffa1cd">
    <path
       id="path1010"
       style="display:inline;fill:#ffa1cd;fill-opacity:1;stroke:none;stroke-width:1.09902;stroke-dasharray:none"
       d="m 100.17928,150.10523 v 30.06314 c -1.133671,7.981 3.21065,15.47843 10.16323,18.64411 2.50467,1.14044 4.69232,-0.9977 5.99674,-3.39921 1.69064,-3.11255 4.97535,-5.22386 8.75039,-5.22386 1.20358,0 2.35732,0.21461 3.42544,0.60787 3.64835,1.34322 7.68147,6.99209 11.37221,8.27957 1.10199,0.38442 2.20341,0.69126 3.16696,0.88825 1.08049,0.22091 2.13333,-0.63753 2.27444,-1.73297 0.68067,-5.28386 0.35601,-8.04272 4.67131,-8.04272 4.82218,0 5.0049,3.44505 4.97629,8.02142 -0.007,1.10436 0.88898,1.97517 1.96949,1.75427 1.21354,-0.24811 2.64577,-0.67046 4.02242,-1.20258 3.18645,-1.23168 6.59683,-6.14192 9.67717,-7.61131 1.29292,-0.61676 2.73889,-0.9618 4.26499,-0.9618 3.77504,0 7.05976,2.11131 8.7504,5.22386 1.30441,2.40151 3.49206,4.53965 5.99674,3.3992 6.95258,-3.16568 11.29689,-10.6631 10.16322,-18.6441 V 150.10523 C 199.82072,122.43287 177.51523,100 150,100 c -27.51523,0 -49.82072,22.43287 -49.82072,50.10523 z"
       inkscape:path-effect="#path-effect1020"
       inkscape:original-d="m 100.17928,150.10523 v 30.06314 c -1.375762,9.68532 5.31588,18.65847 14.94621,20.04209 0,-5.53447 4.4611,-10.02105 9.96415,-10.02105 3.77209,0 7.05463,2.10802 8.74643,5.21659 1.30727,2.40201 8.44839,4.80446 11.19993,4.80446 1.11486,-6.57172 0.13882,-10.02105 4.964,-10.02105 5.50305,0 4.964,4.48658 4.964,10.02105 2.75155,0 9.89266,-2.40246 11.19992,-4.80446 1.69181,-3.10857 4.97434,-5.21659 8.74644,-5.21659 5.50305,0 9.96415,4.48658 9.96415,10.02105 9.63033,-1.38362 16.32197,-10.35677 14.94621,-20.04209 V 150.10523 C 199.82072,122.43287 177.51523,100 150,100 c -27.51523,0 -49.82072,22.43287 -49.82072,50.10523 z"
       inkscape:label="Body 2"
       sodipodi:nodetypes="sccsscscssccsss" />
    <path
       id="path1012"
       style="fill:#ffa1cd;fill-opacity:1;stroke:none;stroke-width:1.09952;stroke-dasharray:none"
       d="m 0.17927582,150.15063 v 30.09038 c -1.13369211,7.98838 3.21079348,15.49271 10.16358418,18.66117 2.504297,1.14124 4.691846,-0.99615 5.994399,-3.39878 1.690048,-3.11738 4.975859,-5.23226 8.752379,-5.23226 3.772097,0 7.054635,2.10993 8.746437,5.22132 0.980978,1.80411 2.431418,3.60847 4.257041,4.3968 1.006941,0.43481 2.078452,-0.47668 2.382474,-1.538 1.520593,-5.30828 5.200929,-8.08012 9.524411,-8.08012 4.827192,0 8.852652,3.45534 9.768612,8.04297 0.215918,1.08144 1.13136,2.00996 2.138324,1.57512 1.825598,-0.78834 3.27602,-2.59268 4.256989,-4.39678 1.691802,-3.11138 4.974341,-5.22131 8.746437,-5.22131 3.776523,0 7.062336,2.11488 8.752383,5.23227 1.302549,2.40262 3.490105,4.54001 5.994408,3.39877 6.952783,-3.16847 11.297266,-10.6728 10.16357,-18.66117 V 150.15063 C 99.820724,122.4532 77.51523,100 50.000001,100 22.484772,100 0.17927582,122.4532 0.17927582,150.15063 Z"
       inkscape:path-effect="#path-effect1024"
       inkscape:original-d="m 0.17927582,150.15063 v 30.09038 A 17.614287,17.730927 0 0 0 15.125493,200.30127 c 0,-5.53949 4.461097,-10.03013 9.964145,-10.03013 3.772097,0 7.054635,2.10993 8.746437,5.22132 1.307266,2.40418 3.448232,4.80881 6.199781,4.80881 1.114858,-6.57768 5.138968,-10.03013 9.964145,-10.03013 5.503047,0 9.964145,4.49064 9.964145,10.03013 2.751548,0 4.892514,-2.40463 6.19978,-4.80882 1.691802,-3.11138 4.974341,-5.22131 8.746437,-5.22131 5.503048,0 9.964145,4.49064 9.964145,10.03013 A 17.614287,17.730927 0 0 0 99.820724,180.24101 V 150.15063 C 99.820724,122.4532 77.51523,100 50.000001,100 22.484772,100 0.17927582,122.4532 0.17927582,150.15063 Z"
       inkscape:label="Body 1" />
    <g
       inkscape:groupmode="layer"
       id="g1573"
       inkscape:label="Eyes 2"
       style="display:inline">
      <ellipse
         style="fill:#ffffff;fill-opacity:1;stroke:none;stroke-width:1.09002;stroke-dasharray:none"
         id="ellipse1565"
         cx="167.5"
         cy="130"
         rx="7.5"
         ry="10" />
      <ellipse
         style="fill:#000000;fill-opacity:1;stroke:none;stroke-width:0.444999;stroke-dasharray:none"
         id="ellipse1567"
         cx="167.5"
         cy="130"
         rx="2.5"
         ry="5" />
      <ellipse
         style="fill:#ffffff;fill-opacity:1;stroke:none;stroke-width:1.09002;stroke-dasharray:none"
         id="ellipse1569"
         cx="137.5"
         cy="130"
         rx="7.5"
         ry="10" />
      <ellipse
         style="fill:#000000;fill-opacity:1;stroke:none;stroke-width:0.444999;stroke-dasharray:none"
         id="ellipse1571"
         cx="137.5"
         cy="130"
         rx="2.5"
         ry="5" />
    </g>
    <g
       inkscape:groupmode="layer"
       id="g1588"
       inkscape:label="Eyes"
       style="display:inline">
      <ellipse
         style="fill:#ffffff;fill-opacity:1;stroke:none;stroke-width:1.09002;stroke-dasharray:none"
         id="ellipse1580"
         cx="67.5"
         cy="130"
         rx="7.5"
         ry="10" />
      <ellipse
         style="fill:#000000;fill-opacity:1;stroke:none;stroke-width:0.444999;stroke-dasharray:none"
         id="ellipse1582"
         cx="67.5"
         cy="130"
         rx="2.5"
         ry="5" />
      <ellipse
         style="fill:#ffffff;fill-opacity:1;stroke:none;stroke-width:1.09002;stroke-dasharray:none"
         id="ellipse1584"
         cx="37.5"
         cy="130"
         rx="7.5"
         ry="10" />
      <ellipse
         style="fill:#000000;fill-opacity:1;stroke:none;stroke-width:0.444999;stroke-dasharray:none"
         id="ellipse1586"
         cx="37.5"
         cy="130"
         rx="2.5"
         ry="5" />
    </g>
  </g>
  <g
     inkscape:label="Enemy Orange"
     inkscape:groupmode="layer"
     id="g1034"
     style="display:inline"
     inkscape:highlight-color="#ffcc00">
    <path
       id="path1030"
       style="display:inline;fill:#ffcc00;fill-opacity:1;stroke:none;stroke-width:1.09902;stroke-dasharray:none"
       d="m 100.17928,350.10523 v 30.06314 c -1.133671,7.981 3.21065,15.47843 10.16323,18.64411 2.50467,1.14044 4.69232,-0.9977 5.99674,-3.39921 1.69064,-3.11255 4.97535,-5.22386 8.75039,-5.22386 1.20358,0 2.35732,0.21461 3.42544,0.60787 3.64835,1.34322 7.68147,6.99209 11.37221,8.27957 1.10199,0.38442 2.20341,0.69126 3.16696,0.88825 1.08049,0.22091 2.13333,-0.63753 2.27444,-1.73297 0.68067,-5.28386 0.35601,-8.04272 4.67131,-8.04272 4.82218,0 5.0049,3.44505 4.97629,8.02142 -0.007,1.10436 0.88898,1.97517 1.96949,1.75427 1.21354,-0.24811 2.64577,-0.67046 4.02242,-1.20258 3.18645,-1.23168 6.59683,-6.14192 9.67717,-7.61131 1.29292,-0.61676 2.73889,-0.9618 4.26499,-0.9618 3.77504,0 7.05976,2.11131 8.7504,5.22386 1.30441,2.40151 3.49206,4.53965 5.99674,3.3992 6.95258,-3.16568 11.29689,-10.6631 10.16322,-18.6441 V 350.10523 C 199.82072,322.43287 177.51523,300 150,300 c -27.51523,0 -49.82072,22.43287 -49.82072,50.10523 z"
       inkscape:path-effect="#path-effect1038"
       inkscape:original-d="m 100.17928,350.10523 v 30.06314 c -1.375762,9.68532 5.31588,18.65847 14.94621,20.04209 0,-5.53447 4.4611,-10.02105 9.96415,-10.02105 3.77209,0 7.05463,2.10802 8.74643,5.21659 1.30727,2.40201 8.44839,4.80446 11.19993,4.80446 1.11486,-6.57172 0.13882,-10.02105 4.964,-10.02105 5.50305,0 4.964,4.48658 4.964,10.02105 2.75155,0 9.89266,-2.40246 11.19992,-4.80446 1.69181,-3.10857 4.97434,-5.21659 8.74644,-5.21659 5.50305,0 9.96415,4.48658 9.96415,10.02105 9.63033,-1.38362 16.32197,-10.35677 14.94621,-20.04209 V 350.10523 C 199.82072,322.43287 177.51523,300 150,300 c -27.51523,0 -49.82072,22.43287 -49.82072,50.10523 z"
       inkscape:label="Body 2"
       sodipodi:nodetypes="sccsscscssccsss" />
    <path
       id="path1032"
       style="fill:#ffcc00;fill-opacity:1;stroke:none;stroke-width:1.09952;stroke-dasharray:none"
       d="m 0.17927582,350.15063 v 30.09038 c -1.13369211,7.98838 3.21079348,15.49271 10.16358418,18.66117 2.504297,1.14124 4.691846,-0.99615 5.994399,-3.39878 1.690048,-3.11738 4.975859,-5.23226 8.752379,-5.23226 3.772097,0 7.054634,2.10993 8.746436,5.22132 0.980978,1.80411 2.431418,3.60847 4.257041,4.3968 1.006941,0.43481 2.078452,-0.47668 2.382474,-1.538 1.520593,-5.30828 5.200929,-8.08012 9.524411,-8.08012 4.827192,0 8.852652,3.45534 9.768612,8.04297 0.215918,1.08144 1.13136,2.00996 2.138324,1.57512 1.825598,-0.78834 3.27602,-2.59268 4.256989,-4.39678 1.691802,-3.11138 4.974341,-5.22131 8.746437,-5.22131 3.776523,0 7.062336,2.11488 8.752383,5.23227 1.302549,2.40262 3.490105,4.54001 5.994408,3.39877 6.952782,-3.16847 11.297257,-10.6728 10.163569,-18.66117 V 350.15063 C 99.820722,322.4532 77.515229,300 50,300 22.484772,300 0.17927582,322.4532 0.17927582,350.15063 Z"
       inkscape:path-effect="#path-effect1042"
       inkscape:original-d="m 0.17927582,350.15063 v 30.09038 A 17.614287,17.730927 0 0 0 15.125493,400.30127 c 0,-5.53949 4.461097,-10.03013 9.964145,-10.03013 3.772097,0 7.054634,2.10993 8.746436,5.22132 1.307266,2.40418 3.448232,4.80881 6.199781,4.80881 1.114858,-6.57768 5.138968,-10.03013 9.964145,-10.03013 5.503047,0 9.964145,4.49064 9.964145,10.03013 2.751548,0 4.892514,-2.40463 6.19978,-4.80882 1.691802,-3.11138 4.974341,-5.22131 8.746437,-5.22131 5.503048,0 9.964145,4.49064 9.964145,10.03013 A 17.614287,17.730927 0 0 0 99.820722,380.24101 V 350.15063 C 99.820722,322.4532 77.515229,300 50,300 22.484772,300 0.17927582,322.4532 0.17927582,350.15063 Z"
       inkscape:label="Body 1" />
    <g
       inkscape:groupmode="layer"
       id="g1543"
       inkscape:label="Eyes 2"
       style="display:inline">
      <ellipse
         style="fill:#ffffff;fill-opacity:1;stroke:none;stroke-width:1.09002;stroke-dasharray:none"
         id="ellipse1535"
         cx="167.5"
         cy="330"
         rx="7.5"
         ry="10" />
      <ellipse
         style="fill:#000000;fill-opacity:1;stroke:none;stroke-width:0.444999;stroke-dasharray:none"
         id="ellipse1537"
         cx="167.5"
         cy="330"
         rx="2.5"
         ry="5" />
      <ellipse
         style="fill:#ffffff;fill-opacity:1;stroke:none;stroke-width:1.09002;stroke-dasharray:none"
         id="ellipse1539"
         cx="137.5"
         cy="330"
         rx="7.5"
         ry="10" />
      <ellipse
         style="fill:#000000;fill-opacity:1;stroke:none;stroke-width:0.444999;stroke-dasharray:none"
         id="ellipse1541"
         cx="137.5"
         cy="330"
         rx="2.5"
         ry="5" />
    </g>
    <g
       inkscape:groupmode="layer"
       id="g1558"
       inkscape:label="Eyes"
       style="display:inline">
      <ellipse
         style="fill:#ffffff;fill-opacity:1;stroke:none;stroke-width:1.09002;stroke-dasharray:none"
         id="ellipse1550"
         cx="67.5"
         cy="330"
         rx="7.5"
         ry="10" />
      <ellipse
         style="fill:#000000;fill-opacity:1;stroke:none;stroke-width:0.444999;stroke-dasharray:none"
         id="ellipse1552"
         cx="67.5"
         cy="330"
         rx="2.5"
         ry="5" />
      <ellipse
         style="fill:#ffffff;fill-opacity:1;stroke:none;stroke-width:1.09002;stroke-dasharray:none"
         id="ellipse1554"
         cx="37.5"
         cy="330"
         rx="7.5"
         ry="10" />
      <ellipse
         style="fill:#000000;fill-opacity:1;stroke:none;stroke-width:0.444999;stroke-dasharray:none"
         id="ellipse1556"
         cx="37.5"
         cy="330"
         rx="2.5"
         ry="5" />
    </g>
  </g>
  <g
     inkscape:label="Enemy Red"
     inkscape:groupmode="layer"
     id="g1048"
     style="display:inline"
     inkscape:highlight-color="#ff3100">
    <path
       id="path1044"
       style="display:inline;fill:#ff3100;fill-opacity:1;stroke:none;stroke-width:1.09902;stroke-dasharray:none"
       d="m 100.17928,50.10523 v 30.06314 c -1.133671,7.981004 3.21065,15.478426 10.16323,18.644111 2.50467,1.14044 4.69232,-0.997705 5.99674,-3.399214 1.69064,-3.112551 4.97535,-5.223857 8.75039,-5.223857 1.20358,0 2.35732,0.214615 3.42544,0.607869 3.64835,1.343217 7.68147,6.992094 11.37221,8.279566 1.10199,0.38442 2.20341,0.691261 3.16696,0.888255 1.08049,0.22091 2.13333,-0.637527 2.27444,-1.732971 0.68067,-5.283858 0.35601,-8.042719 4.67131,-8.042719 4.82218,0 5.0049,3.44505 4.97629,8.021417 -0.007,1.104366 0.88898,1.975173 1.96949,1.754268 1.21354,-0.248106 2.64577,-0.670453 4.02242,-1.202577 3.18645,-1.231679 6.59683,-6.141914 9.67717,-7.611312 1.29292,-0.616751 2.73889,-0.961796 4.26499,-0.961796 3.77504,0 7.05976,2.111309 8.7504,5.223865 1.30441,2.401506 3.49206,4.539645 5.99674,3.3992 6.95258,-3.165688 11.29689,-10.663106 10.16322,-18.644105 V 50.10523 C 199.82072,22.43287 177.51523,0 150,0 122.48477,0 100.17928,22.43287 100.17928,50.10523 Z"
       inkscape:path-effect="#path-effect1052"
       inkscape:original-d="m 100.17928,50.10523 v 30.06314 c -1.375762,9.68532 5.31588,18.65847 14.94621,20.04209 0,-5.53447 4.4611,-10.02105 9.96415,-10.02105 3.77209,0 7.05463,2.10802 8.74643,5.21659 1.30727,2.40201 8.44839,4.80446 11.19993,4.80446 1.11486,-6.57172 0.13882,-10.02105 4.964,-10.02105 5.50305,0 4.964,4.48658 4.964,10.02105 2.75155,0 9.89266,-2.40246 11.19992,-4.80446 1.69181,-3.10857 4.97434,-5.21659 8.74644,-5.21659 5.50305,0 9.96415,4.48658 9.96415,10.02105 9.63033,-1.38362 16.32197,-10.35677 14.94621,-20.04209 V 50.10523 C 199.82072,22.43287 177.51523,0 150,0 122.48477,0 100.17928,22.43287 100.17928,50.10523 Z"
       inkscape:label="Body 2"
       sodipodi:nodetypes="sccsscscssccsss" />
    <path
       id="path1046"
       style="fill:#ff3100;fill-opacity:1;stroke:none;stroke-width:1.09952;stroke-dasharray:none"
       d="M 0.17927582,50.15063 V 80.24101 C -0.95441629,88.229385 3.3900693,95.733722 10.34286,98.902183 c 2.504297,1.141237 4.691846,-0.996154 5.994399,-3.398782 1.690048,-3.117383 4.975859,-5.232261 8.752379,-5.232261 3.772097,0 7.054635,2.10993 8.746437,5.22132 0.980978,1.804107 2.431418,3.608468 4.257041,4.396797 1.006941,0.434813 2.078452,-0.476678 2.382474,-1.537994 1.520593,-5.308283 5.200929,-8.080123 9.524411,-8.080123 4.827192,0 8.852652,3.455341 9.768612,8.042974 0.215918,1.081432 1.13136,2.009956 2.138324,1.57512 1.825598,-0.788341 3.27602,-2.592686 4.256989,-4.396784 1.691802,-3.11138 4.974341,-5.22131 8.746437,-5.22131 3.776523,0 7.062336,2.114881 8.752383,5.232269 1.302549,2.402625 3.490105,4.540011 5.994408,3.398768 C 96.609937,95.733712 100.95442,88.22938 99.820724,80.24101 V 50.15063 C 99.820724,22.4532 77.51523,0 50.000001,0 22.484772,0 0.17927582,22.4532 0.17927582,50.15063 Z"
       inkscape:path-effect="#path-effect1056"
       inkscape:original-d="M 0.17927582,50.15063 V 80.24101 A 17.614287,17.730927 0 0 0 15.125493,100.30127 c 0,-5.53949 4.461097,-10.03013 9.964145,-10.03013 3.772097,0 7.054635,2.10993 8.746437,5.22132 1.307266,2.40418 3.448232,4.80881 6.199781,4.80881 1.114858,-6.57768 5.138968,-10.03013 9.964145,-10.03013 5.503047,0 9.964145,4.49064 9.964145,10.03013 2.751548,0 4.892514,-2.40463 6.19978,-4.80882 1.691802,-3.11138 4.974341,-5.22131 8.746437,-5.22131 5.503048,0 9.964145,4.49064 9.964145,10.03013 A 17.614287,17.730927 0 0 0 99.820724,80.24101 V 50.15063 C 99.820724,22.4532 77.51523,0 50.000001,0 22.484772,0 0.17927582,22.4532 0.17927582,50.15063 Z"
       inkscape:label="Body 1" />
    <g
       inkscape:groupmode="layer"
       id="g1462"
       inkscape:label="Eyes 2"
       style="display:inline">
      <ellipse
         style="fill:#ffffff;fill-opacity:1;stroke:none;stroke-width:1.09002;stroke-dasharray:none"
         id="ellipse1454"
         cx="167.5"
         cy="30"
         rx="7.5"
         ry="10" />
      <ellipse
         style="fill:#000000;fill-opacity:1;stroke:none;stroke-width:0.444999;stroke-dasharray:none"
         id="ellipse1456"
         cx="167.5"
         cy="30"
         rx="2.5"
         ry="5" />
      <ellipse
         style="fill:#ffffff;fill-opacity:1;stroke:none;stroke-width:1.09002;stroke-dasharray:none"
         id="ellipse1458"
         cx="137.5"
         cy="30"
         rx="7.5"
         ry="10" />
      <ellipse
         style="fill:#000000;fill-opacity:1;stroke:none;stroke-width:0.444999;stroke-dasharray:none"
         id="ellipse1460"
         cx="137.5"
         cy="30"
         rx="2.5"
         ry="5" />
    </g>
    <g
       inkscape:groupmode="layer"
       id="g1528"
       inkscape:label="Eyes"
       style="display:inline">
      <ellipse
         style="fill:#ffffff;fill-opacity:1;stroke:none;stroke-width:1.09002;stroke-dasharray:none"
         id="ellipse1520"
         cx="67.5"
         cy="30"
         rx="7.5"
         ry="10" />
      <ellipse
         style="fill:#000000;fill-opacity:1;stroke:none;stroke-width:0.444999;stroke-dasharray:none"
         id="ellipse1522"
         cx="67.5"
         cy="30"
         rx="2.5"
         ry="5" />
      <ellipse
         style="fill:#ffffff;fill-opacity:1;stroke:none;stroke-width:1.09002;stroke-dasharray:none"
         id="ellipse1524"
         cx="37.5"
         cy="30"
         rx="7.5"
         ry="10" />
      <ellipse
         style="fill:#000000;fill-opacity:1;stroke:none;stroke-width:0.444999;stroke-dasharray:none"
         id="ellipse1526"
         cx="37.5"
         cy="30"
         rx="2.5"
         ry="5" />
    </g>
  </g>
  <g
     inkscape:label="Dark Blue"
     inkscape:groupmode="layer"
     id="g168"
     inkscape:highlight-color="#0e3bf4">
    <path
       id="path164"
       style="display:inline;fill:#0e3bf4;fill-opacity:1;stroke:none;stroke-width:1.09902;stroke-dasharray:none"
       d="m 100.17928,450.10523 v 30.06314 c -1.133671,7.981 3.21065,15.47843 10.16323,18.64411 2.50467,1.14044 4.69232,-0.9977 5.99674,-3.39921 1.69064,-3.11255 4.97535,-5.22386 8.75039,-5.22386 1.20358,0 2.35732,0.21461 3.42544,0.60787 3.64835,1.34322 7.68147,6.99209 11.37221,8.27957 1.10199,0.38442 2.20341,0.69126 3.16696,0.88825 1.08049,0.22091 2.13333,-0.63753 2.27444,-1.73297 0.68067,-5.28386 0.35601,-8.04272 4.67131,-8.04272 4.82218,0 5.0049,3.44505 4.97629,8.02142 -0.007,1.10436 0.88898,1.97517 1.96949,1.75427 1.21354,-0.24811 2.64577,-0.67046 4.02242,-1.20258 3.18645,-1.23168 6.59683,-6.14192 9.67717,-7.61131 1.29292,-0.61676 2.73889,-0.9618 4.26499,-0.9618 3.77504,0 7.05976,2.11131 8.7504,5.22386 1.30441,2.40151 3.49206,4.53965 5.99674,3.3992 6.95258,-3.16568 11.29689,-10.6631 10.16322,-18.6441 V 450.10523 C 199.82072,422.43287 177.51523,400 150,400 c -27.51523,0 -49.82072,22.43287 -49.82072,50.10523 z"
       inkscape:path-effect="#path-effect172"
       inkscape:original-d="m 100.17928,450.10523 v 30.06314 c -1.375762,9.68532 5.31588,18.65847 14.94621,20.04209 0,-5.53447 4.4611,-10.02105 9.96415,-10.02105 3.77209,0 7.05463,2.10802 8.74643,5.21659 1.30727,2.40201 8.44839,4.80446 11.19993,4.80446 1.11486,-6.57172 0.13882,-10.02105 4.964,-10.02105 5.50305,0 4.964,4.48658 4.964,10.02105 2.75155,0 9.89266,-2.40246 11.19992,-4.80446 1.69181,-3.10857 4.97434,-5.21659 8.74644,-5.21659 5.50305,0 9.96415,4.48658 9.96415,10.02105 9.63033,-1.38362 16.32197,-10.35677 14.94621,-20.04209 V 450.10523 C 199.82072,422.43287 177.51523,400 150,400 c -27.51523,0 -49.82072,22.43287 -49.82072,50.10523 z"
       inkscape:label="Body 2"
       sodipodi:nodetypes="sccsscscssccsss" />
    <path
       id="path166"
       style="display:inline;fill:#0e3bf4;fill-opacity:1;stroke:none;stroke-width:1.09952;stroke-dasharray:none"
       d="m 0.17927582,450.15063 v 30.09038 c -1.13369211,7.98838 3.21079348,15.49271 10.16358418,18.66117 2.504297,1.14124 4.691846,-0.99615 5.994399,-3.39878 1.690048,-3.11738 4.975859,-5.23226 8.752379,-5.23226 3.772097,0 7.054635,2.10993 8.746437,5.22132 0.980978,1.80411 2.431418,3.60847 4.257041,4.3968 1.006941,0.43481 2.078452,-0.47668 2.382474,-1.538 1.520593,-5.30828 5.200929,-8.08012 9.524411,-8.08012 4.827192,0 8.852652,3.45534 9.768612,8.04297 0.215918,1.08144 1.13136,2.00996 2.138324,1.57512 1.825598,-0.78834 3.27602,-2.59268 4.256989,-4.39678 1.691802,-3.11138 4.974341,-5.22131 8.746437,-5.22131 3.776523,0 7.062336,2.11488 8.752383,5.23227 1.302549,2.40262 3.490105,4.54001 5.994408,3.39877 6.952783,-3.16847 11.297266,-10.6728 10.16357,-18.66117 V 450.15063 C 99.820724,422.4532 77.51523,400 50.000001,400 22.484772,400 0.17927582,422.4532 0.17927582,450.15063 Z"
       inkscape:path-effect="#path-effect176"
       inkscape:original-d="m 0.17927582,450.15063 v 30.09038 A 17.614287,17.730927 0 0 0 15.125493,500.30127 c 0,-5.53949 4.461097,-10.03013 9.964145,-10.03013 3.772097,0 7.054635,2.10993 8.746437,5.22132 1.307266,2.40418 3.448232,4.80881 6.199781,4.80881 1.114858,-6.57768 5.138968,-10.03013 9.964145,-10.03013 5.503047,0 9.964145,4.49064 9.964145,10.03013 2.751548,0 4.892514,-2.40463 6.19978,-4.80882 1.691802,-3.11138 4.974341,-5.22131 8.746437,-5.22131 5.503048,0 9.964145,4.49064 9.964145,10.03013 A 17.614287,17.730927 0 0 0 99.820724,480.24101 V 450.15063 C 99.820724,422.4532 77.51523,400 50.000001,400 22.484772,400 0.17927582,422.4532 0.17927582,450.15063 Z"
       inkscape:label="Body 1" />
    <g
       inkscape:groupmode="layer"
       id="g1422"
       inkscape:label="Eyes"
       style="display:inline">
      <ellipse
         style="fill:#ffffff;fill-opacity:1;stroke:none;stroke-width:1.09002;stroke-dasharray:none"
         id="ellipse1414"
         cx="67.5"
         cy="430"
         rx="7.5"
         ry="10" />
      <ellipse
         style="fill:#000000;fill-opacity:1;stroke:none;stroke-width:0.444999;stroke-dasharray:none"
         id="ellipse1416"
         cx="67.5"
         cy="430"
         rx="2.5"
         ry="5" />
      <ellipse
         style="fill:#ffffff;fill-opacity:1;stroke:none;stroke-width:1.09002;stroke-dasharray:none"
         id="ellipse1418"
         cx="37.5"
         cy="430"
         rx="7.5"
         ry="10" />
      <ellipse
         style="fill:#000000;fill-opacity:1;stroke:none;stroke-width:0.444999;stroke-dasharray:none"
         id="ellipse1420"
         cx="37.5"
         cy="430"
         rx="2.5"
         ry="5" />
    </g>
    <g
       inkscape:groupmode="layer"
       id="g1432"
       inkscape:label="Eyes 2"
       style="display:inline">
      <ellipse
         style="fill:#ffffff;fill-opacity:1;stroke:none;stroke-width:1.09002;stroke-dasharray:none"
         id="ellipse1424"
         cx="167.5"
         cy="430"
         rx="7.5"
         ry="10" />
      <ellipse
         style="fill:#000000;fill-opacity:1;stroke:none;stroke-width:0.444999;stroke-dasharray:none"
         id="ellipse1426"
         cx="167.5"
         cy="430"
         rx="2.5"
         ry="5" />
      <ellipse
         style="fill:#ffffff;fill-opacity:1;stroke:none;stroke-width:1.09002;stroke-dasharray:none"
         id="ellipse1428"
         cx="137.5"
         cy="430"
         rx="7.5"
         ry="10" />
      <ellipse
         style="fill:#000000;fill-opacity:1;stroke:none;stroke-width:0.444999;stroke-dasharray:none"
         id="ellipse1430"
         cx="137.5"
         cy="430"
         rx="2.5"
         ry="5" />
    </g>
  </g>
</svg>
